{
    "asset" : {
        "generator" : "Khronos glTF Blender I/O v0.9.36",
        "version" : "2.0"
    },
    "scene" : 0,
    "scenes" : [
        {
            "name" : "Scene",
            "nodes" : [
                0,
                1,
                2,
                3
            ]
        }
    ],
    "nodes" : [
        {
            "name" : "Plane",
            "rotation" : [
                0,
                0,
                -0.7071067690849304,
                0.7071068286895752
            ]
        },
        {
            "mesh" : 0,
            "name" : "Plane.001",
            "translation" : [
                -0.00017345718515571207,
                1.00337553024292,
                1.245184302330017
            ]
        },
        {
            "name" : "Plane.002",
            "rotation" : [
                0,
                0,
                -0.7071067690849304,
                0.7071068286895752
            ]
        },
        {
            "mesh" : 1,
            "name" : "Cylinder",
            "translation" : [
                0,
                0.7566284537315369,
                1.8202662467956543
            ]
        }
    ],
    "materials" : [
        {
            "doubleSided" : true,
            "name" : "Material.001",
            "pbrMetallicRoughness" : {
                "baseColorFactor" : [
                    0.8000000715255737,
                    0.03770628571510315,
                    0.02567388117313385,
                    1
                ],
                "metallicFactor" : 0,
                "roughnessFactor" : 0.5
            }
        },
        {
            "doubleSided" : true,
            "name" : "Material.003",
            "pbrMetallicRoughness" : {
                "baseColorFactor" : [
                    0.800000011920929,
                    0.800000011920929,
                    0.800000011920929,
                    1
                ],
                "metallicFactor" : 0,
                "roughnessFactor" : 0.5
            }
        },
        {
            "doubleSided" : true,
            "name" : "Material.002",
            "pbrMetallicRoughness" : {
                "baseColorFactor" : [
                    0,
                    0,
                    0,
                    1
                ],
                "metallicFactor" : 0,
                "roughnessFactor" : 0.5
            }
        }
    ],
    "meshes" : [
        {
            "name" : "Plane.003",
            "primitives" : [
                {
                    "attributes" : {
                        "POSITION" : 0,
                        "NORMAL" : 1,
                        "TEXCOORD_0" : 2
                    },
                    "indices" : 3,
                    "material" : 0
                },
                {
                    "attributes" : {
                        "POSITION" : 4,
                        "NORMAL" : 5,
                        "TEXCOORD_0" : 6
                    },
                    "indices" : 7,
                    "material" : 1
                },
                {
                    "attributes" : {
                        "POSITION" : 8,
                        "NORMAL" : 9,
                        "TEXCOORD_0" : 10
                    },
                    "indices" : 11,
                    "material" : 2
                }
            ]
        },
        {
            "name" : "Cylinder.003",
            "primitives" : [
                {
                    "attributes" : {
                        "POSITION" : 12,
                        "NORMAL" : 13,
                        "TEXCOORD_0" : 14
                    },
                    "indices" : 15
                }
            ]
        }
    ],
    "accessors" : [
        {
            "bufferView" : 0,
            "componentType" : 5126,
            "count" : 1808,
            "max" : [
                1.8849949836730957,
                0.42784950137138367,
                0.7697869539260864
            ],
            "min" : [
                -1.8849949836730957,
                -0.8712536692619324,
                -2.0062952041625977
            ],
            "type" : "VEC3"
        },
        {
            "bufferView" : 1,
            "componentType" : 5126,
            "count" : 1808,
            "type" : "VEC3"
        },
        {
            "bufferView" : 2,
            "componentType" : 5126,
            "count" : 1808,
            "type" : "VEC2"
        },
        {
            "bufferView" : 3,
            "componentType" : 5123,
            "count" : 2814,
            "type" : "SCALAR"
        },
        {
            "bufferView" : 4,
            "componentType" : 5126,
            "count" : 916,
            "max" : [
                0.4190249443054199,
                0.014080791734158993,
                0.7567885518074036
            ],
            "min" : [
                -0.41902488470077515,
                -0.9676403999328613,
                -1.6602466106414795
            ],
            "type" : "VEC3"
        },
        {
            "bufferView" : 5,
            "componentType" : 5126,
            "count" : 916,
            "type" : "VEC3"
        },
        {
            "bufferView" : 6,
            "componentType" : 5126,
            "count" : 916,
            "type" : "VEC2"
        },
        {
            "bufferView" : 7,
            "componentType" : 5123,
            "count" : 1488,
            "type" : "SCALAR"
        },
        {
            "bufferView" : 8,
            "componentType" : 5126,
            "count" : 318,
            "max" : [
                0.41153737902641296,
                -0.3617576062679291,
                0.6737024784088135
            ],
            "min" : [
                -0.4115373492240906,
                -1.0126149654388428,
                -1.6602466106414795
            ],
            "type" : "VEC3"
        },
        {
            "bufferView" : 9,
            "componentType" : 5126,
            "count" : 318,
            "type" : "VEC3"
        },
        {
            "bufferView" : 10,
            "componentType" : 5126,
            "count" : 318,
            "type" : "VEC2"
        },
        {
            "bufferView" : 11,
            "componentType" : 5123,
            "count" : 516,
            "type" : "SCALAR"
        },
        {
            "bufferView" : 12,
            "componentType" : 5126,
            "count" : 576,
            "max" : [
                0.4553755819797516,
                0.44640040397644043,
                0.26282671093940735
            ],
            "min" : [
                -0.4553755223751068,
                -0.44640040397644043,
                -0.1789802461862564
            ],
            "type" : "VEC3"
        },
        {
            "bufferView" : 13,
            "componentType" : 5126,
            "count" : 576,
            "type" : "VEC3"
        },
        {
            "bufferView" : 14,
            "componentType" : 5126,
            "count" : 576,
            "type" : "VEC2"
        },
        {
            "bufferView" : 15,
            "componentType" : 5123,
            "count" : 1080,
            "type" : "SCALAR"
        }
    ],
    "bufferViews" : [
        {
            "buffer" : 0,
            "byteLength" : 21696,
            "byteOffset" : 0
        },
        {
            "buffer" : 0,
            "byteLength" : 21696,
            "byteOffset" : 21696
        },
        {
            "buffer" : 0,
            "byteLength" : 14464,
            "byteOffset" : 43392
        },
        {
            "buffer" : 0,
            "byteLength" : 5628,
            "byteOffset" : 57856
        },
        {
            "buffer" : 0,
            "byteLength" : 10992,
            "byteOffset" : 63484
        },
        {
            "buffer" : 0,
            "byteLength" : 10992,
            "byteOffset" : 74476
        },
        {
            "buffer" : 0,
            "byteLength" : 7328,
            "byteOffset" : 85468
        },
        {
            "buffer" : 0,
            "byteLength" : 2976,
            "byteOffset" : 92796
        },
        {
            "buffer" : 0,
            "byteLength" : 3816,
            "byteOffset" : 95772
        },
        {
            "buffer" : 0,
            "byteLength" : 3816,
            "byteOffset" : 99588
        },
        {
            "buffer" : 0,
            "byteLength" : 2544,
            "byteOffset" : 103404
        },
        {
            "buffer" : 0,
            "byteLength" : 1032,
            "byteOffset" : 105948
        },
        {
            "buffer" : 0,
            "byteLength" : 6912,
            "byteOffset" : 106980
        },
        {
            "buffer" : 0,
            "byteLength" : 6912,
            "byteOffset" : 113892
        },
        {
            "buffer" : 0,
            "byteLength" : 4608,
            "byteOffset" : 120804
        },
        {
            "buffer" : 0,
            "byteLength" : 2160,
            "byteOffset" : 125412
        }
    ],
    "buffers" : [
        {
            "byteLength" : 127572,
            "uri" : "data:application/octet-stream;base64,"
        }
    ]
}
